# xmcd
# 
# Track frame offsets:
#   150
#   11835
#   24805
#   40135
#   59815
#   77890
#   97160
#   111955
#   131155
#   147365
#   164085
#   179580
#   196560
#   210780
#   225720
# 
# Disc length: 3195 seconds
# 
# Revision: 2
# Processed by: cddbd v1.5.2PL0 Copyright (c) Steve Scherf et al.
# Submitted via: Synapstar 1.0 
# 
DISCID=d30c790f
DTITLE=Various Artist - Mm6080
DYEAR=1900
DGENRE=Country
TTITLE0=Tracy Byrd - First Step
TTITLE1=Chely Wright - Till I Was Loved By You
TTITLE2=Mavericks - There Goes My Heart
TTITLE3=Shenandoah And Alison Krauss - Somewhere In The Vicinity Of The He
TTITLE4=Travis Tritt - Put Some Drive In Your Country
TTITLE5=John Berry - You And Only You
TTITLE6=Kathy Mattea - Maybe She's Human
TTITLE7=Travis Tritt - Drift Off To Dream
TTITLE8=Highway 101 - Who's Lonely Now
TTITLE9=John Berry - Kiss Me In The Car
TTITLE10=Pam Tillis - Don't Tell Me What To Do
TTITLE11=Sawyer Brown - Hard To Say
TTITLE12=Steve Wariner - Drive
TTITLE13=Martina Mcbride - Heart Trouble
TTITLE14=David Lee Murphy - Fish Ain't Bitin'
EXTD=MediaType: Karaoke CD+G Producer: Music Maestro
EXTT0=
EXTT1=
EXTT2=
EXTT3=
EXTT4=
EXTT5=
EXTT6=
EXTT7=
EXTT8=
EXTT9=
EXTT10=
EXTT11=
EXTT12=
EXTT13=
EXTT14=
PLAYORDER=
